<svg xmlns="http://www.w3.org/2000/svg" xmlns:xlink="http://www.w3.org/1999/xlink" width="24" height="24" viewBox="0 0 24 24">
  <defs>
    <linearGradient id="linear-gradient" x1="0.5" x2="0.5" y2="1" gradientUnits="objectBoundingBox">
      <stop offset="0" stop-color="#ffaf68"/>
      <stop offset="1" stop-color="#fe8a06"/>
    </linearGradient>
    <clipPath id="clip-我的_邀请好友">
      <rect width="24" height="24"/>
    </clipPath>
  </defs>
  <g id="我的_邀请好友" clip-path="url(#clip-我的_邀请好友)">
    <g id="friends" transform="translate(1 3.5)">
      <g id="Group_11" data-name="Group 11" transform="translate(2.156)">
        <g id="Group_10" data-name="Group 10">
          <path id="Path_9" data-name="Path 9" d="M65.889,57.142A4.265,4.265,0,1,0,69.9,61.4,4.147,4.147,0,0,0,65.889,57.142Z" transform="translate(-61.37 -57.134)" fill="url(#linear-gradient)"/>
        </g>
      </g>
      <g id="Group_13" data-name="Group 13" transform="translate(12.358 0.617)">
        <g id="Group_12" data-name="Group 12" transform="translate(0)">
          <path id="Path_10" data-name="Path 10" d="M291.081,71.321h-.027a3.331,3.331,0,0,0-2.444,1.1,3.8,3.8,0,0,0,.042,5.127,3.332,3.332,0,0,0,2.434,1.064h.028a3.331,3.331,0,0,0,2.444-1.1,3.739,3.739,0,0,0,.973-2.572A3.558,3.558,0,0,0,291.081,71.321Z" transform="translate(-287.636 -71.321)" fill="url(#linear-gradient)"/>
        </g>
      </g>
      <g id="Group_15" data-name="Group 15" transform="translate(11.6 8.611)">
        <g id="Group_14" data-name="Group 14">
          <path id="Path_11" data-name="Path 11" d="M274.333,257.358H274a6,6,0,0,0-4.04,1.558,7.753,7.753,0,0,1,3.027,5.752h7.373v-1.283A6.034,6.034,0,0,0,274.333,257.358Z" transform="translate(-269.96 -257.358)" fill="url(#linear-gradient)"/>
        </g>
      </g>
      <g id="Group_17" data-name="Group 17" transform="translate(0 9.856)">
        <g id="Group_16" data-name="Group 16">
          <path id="Path_12" data-name="Path 12" d="M13.335,292.384a6.472,6.472,0,0,0-6.46-6.065h-.4A6.474,6.474,0,0,0,0,292.793v.767H13.348v-.768Q13.348,292.586,13.335,292.384Z" transform="translate(0 -286.319)" fill="url(#linear-gradient)"/>
        </g>
      </g>
    </g>
  </g>
</svg>
