<svg xmlns="http://www.w3.org/2000/svg" xmlns:xlink="http://www.w3.org/1999/xlink" width="42" height="42" viewBox="0 0 42 42">
  <defs>
    <linearGradient id="linear-gradient" x1="0.5" x2="0.5" y2="1" gradientUnits="objectBoundingBox">
      <stop offset="0" stop-color="#ffdbe2"/>
      <stop offset="1" stop-color="#ff7070"/>
    </linearGradient>
    <clipPath id="clip-path">
      <rect id="Rectangle_63767" data-name="Rectangle 63767" width="28" height="28" transform="translate(291 372)" fill="#fff"/>
    </clipPath>
    <clipPath id="clip-首頁_功能區_VIP">
      <rect width="42" height="42"/>
    </clipPath>
  </defs>
  <g id="首頁_功能區_VIP" clip-path="url(#clip-首頁_功能區_VIP)">
    <g id="Group_68947" data-name="Group 68947" transform="translate(18472 2585)">
      <rect id="Rectangle_73705" data-name="Rectangle 73705" width="42" height="42" rx="8" transform="translate(-18472 -2585)" fill="url(#linear-gradient)"/>
      <g id="Mask_Group_1392" data-name="Mask Group 1392" transform="translate(-18756 -2950)" clip-path="url(#clip-path)">
        <g id="Group_42205" data-name="Group 42205" transform="translate(291.875 373.316)">
          <path id="Path_57670" data-name="Path 57670" d="M13.222,1.67A1.009,1.009,0,0,1,15,1.67l3.47,6.54a1.009,1.009,0,0,0,.709.519l7.228,1.329a1.009,1.009,0,0,1,.551,1.684l-5.094,5.4a1.009,1.009,0,0,0-.266.826l.988,7.39a1.009,1.009,0,0,1-1.442,1.04l-6.593-3.22a1.009,1.009,0,0,0-.885,0L7.077,26.4a1.009,1.009,0,0,1-1.442-1.04l.988-7.39a1.009,1.009,0,0,0-.266-.826l-5.094-5.4a1.009,1.009,0,0,1,.551-1.684L9.043,8.728a1.009,1.009,0,0,0,.709-.519Z" transform="translate(-0.988 -1.134)" fill="#fff"/>
          <path id="Path_57671" data-name="Path 57671" d="M1.938-8.954a19.123,19.123,0,0,0,1.944-.1.516.516,0,0,1,.045.248.5.5,0,0,1-.045.262l-.076,0-.1.007-.117.014a.906.906,0,0,0-.131.024l-.121.031a.4.4,0,0,0-.117.045,1.051,1.051,0,0,0-.09.062.206.206,0,0,0-.066.083.26.26,0,0,0-.021.1,3.445,3.445,0,0,0,.331,1.034L5.427-2.487Q7.11-6.72,7.248-7.106q.014-.034.076-.214t.086-.255q.024-.076.066-.214a2.076,2.076,0,0,0,.059-.238,1.083,1.083,0,0,0,.017-.183q0-.248-1.1-.331A.5.5,0,0,1,6.4-8.8a.516.516,0,0,1,.045-.248q1.138.1,1.641.1.352,0,.858-.045t.686-.052a.516.516,0,0,1,.045.248.5.5,0,0,1-.045.262l-.1.007-.145.01q-.059,0-.159.017t-.172.031q-.072.017-.155.041a.623.623,0,0,0-.141.059.3.3,0,0,0-.093.083A6.679,6.679,0,0,0,8.1-7.148Q7.454-5.569,6.53-3.383T5.248-.335a1.088,1.088,0,0,1-.31.376.659.659,0,0,1-.352.19A.137.137,0,0,1,4.5.206.225.225,0,0,1,4.441.123.522.522,0,0,0,4.393.037L1.387-6.955Q1.09-7.679.9-8.085a.593.593,0,0,0-.283-.272A1.423,1.423,0,0,0,.259-8.5Q.1-8.527-.034-8.541A.5.5,0,0,1-.079-8.8a.516.516,0,0,1,.045-.248A19.407,19.407,0,0,0,1.938-8.954Z" transform="translate(8.081 18.951)" fill="url(#linear-gradient)"/>
        </g>
      </g>
    </g>
  </g>
</svg>
