<svg xmlns="http://www.w3.org/2000/svg" xmlns:xlink="http://www.w3.org/1999/xlink" width="80" height="64" viewBox="0 0 80 64">
  <defs>
    <clipPath id="clip-path">
      <rect id="Rectangle_63902" data-name="Rectangle 63902" width="80" height="64" transform="translate(-9631 -11700)" fill="#e8723e" stroke="#707070" strokeWidth="1"/>
    </clipPath>
    <clipPath id="clip-VIP_01">
      <rect width="80" height="64"/>
    </clipPath>
  </defs>
  <g id="VIP_01" clip-path="url(#clip-VIP_01)">
    <g id="Mask_Group_1447" data-name="Mask Group 1447" transform="translate(9631 11700)" clip-path="url(#clip-path)">
      <g id="V1" transform="translate(-9630.999 -11696.332)">
        <g id="Group_40450" data-name="Group 40450" transform="translate(0 0)">
          <g id="Group_40451" data-name="Group 40451">
            <path id="Path_55760" data-name="Path 55760" d="M-209.957,190.468a5.789,5.789,0,0,1-3.053-.9.186.186,0,0,1-.085-.118.185.185,0,0,1,.026-.143,6.572,6.572,0,0,1,5.122-3.259.283.283,0,0,0,.26-.3.283.283,0,0,0-.172-.236,25.747,25.747,0,0,1-4.324-2.33.283.283,0,0,0-.159-.049.289.289,0,0,0-.157.047,9.361,9.361,0,0,1-5.1,1.6,8,8,0,0,1-1.568-.154,7.337,7.337,0,0,1-4.714-3.132.183.183,0,0,1-.027-.142.185.185,0,0,1,.084-.12,8.21,8.21,0,0,1,4.4-1.312,8.994,8.994,0,0,1,3.086.574.272.272,0,0,0,.1.018.284.284,0,0,0,.285-.282.286.286,0,0,0-.083-.2,25.613,25.613,0,0,1-3.639-4.585.284.284,0,0,0-.242-.133.292.292,0,0,0-.069.009,12.462,12.462,0,0,1-3.043.4,7.061,7.061,0,0,1-7.211-4.883.186.186,0,0,1,.123-.235h0a10.318,10.318,0,0,1,2.924-.462,7.55,7.55,0,0,1,5.247,2.123.287.287,0,0,0,.4-.02.279.279,0,0,0,.051-.3,24.532,24.532,0,0,1-1.782-6.279.285.285,0,0,0-.224-.235,8.885,8.885,0,0,1-5.546-3.479,7.214,7.214,0,0,1-1.21-5.487.183.183,0,0,1,.081-.121.187.187,0,0,1,.105-.032,8.126,8.126,0,0,1,6.015,4.76.282.282,0,0,0,.258.163.316.316,0,0,0,.056-.006.283.283,0,0,0,.224-.264,25.525,25.525,0,0,1,.939-5.852.282.282,0,0,0-.12-.313c-4.225-2.691-5.668-6.769-3.674-10.386a.185.185,0,0,1,.112-.09.433.433,0,0,1,.054,0,.167.167,0,0,1,.092.02,7.794,7.794,0,0,1,4.393,6.87.282.282,0,0,0,.224.267.3.3,0,0,0,.056.006.286.286,0,0,0,.259-.164,25.832,25.832,0,0,1,2.128-3.753.282.282,0,0,0,.018-.287c-2.421-4.661-2.047-8.323,1.11-10.861a.179.179,0,0,1,.112-.042.2.2,0,0,1,.153.073,7.316,7.316,0,0,1,1.277,7.085.281.281,0,0,0,.18.356.288.288,0,0,0,.291-.069,25.612,25.612,0,0,1,4.481-3.53.283.283,0,0,0,.133-.229c.155-4.209,3.078-6.255,8.936-6.255a.213.213,0,0,1,.17.078.187.187,0,0,1,.027.168c-.632,1.938-2.669,6.445-7.916,6.445-.257,0-.528-.022-.8-.044h-.022a.284.284,0,0,0-.15.042,25.105,25.105,0,0,0-2.464,1.716.28.28,0,0,0-.046.4.288.288,0,0,0,.322.089,8.954,8.954,0,0,1,3.093-.6,6.807,6.807,0,0,1,4.929,2.157.193.193,0,0,1,.055.134.19.19,0,0,1-.058.132,8.33,8.33,0,0,1-5.614,2.649,7.957,7.957,0,0,1-5.187-2.285.287.287,0,0,0-.4.02,25.274,25.274,0,0,0-4.474,6.751.281.281,0,0,0,.145.372.287.287,0,0,0,.324-.065,7.1,7.1,0,0,1,8.324-2.241.189.189,0,0,1,.105.1.192.192,0,0,1,0,.145c-1.428,3.482-3.674,5.248-6.677,5.248a10.477,10.477,0,0,1-3.068-.522.277.277,0,0,0-.085-.013.283.283,0,0,0-.272.2,25.073,25.073,0,0,0-1.044,6.957.283.283,0,0,0,.235.28.359.359,0,0,0,.049,0,.285.285,0,0,0,.268-.188c1.267-3.551,3.41-5.216,6.741-5.249a.241.241,0,0,1,.134.055.186.186,0,0,1,.055.133c-.058,4.994-2.352,7.588-7.029,7.927a.283.283,0,0,0-.263.3l0,.014a24.7,24.7,0,0,0,.733,3.648,25,25,0,0,0,1.036,2.919.284.284,0,0,0,.263.173.242.242,0,0,0,.063-.008.282.282,0,0,0,.224-.29c-.176-3.479,1.2-5.94,4.091-7.315a.191.191,0,0,1,.082-.018.2.2,0,0,1,.067.011.182.182,0,0,1,.105.1c2.041,4.448.986,7.879-3.136,10.21a.279.279,0,0,0-.134.173.28.28,0,0,0,.03.222,25.214,25.214,0,0,0,4.542,5.549.289.289,0,0,0,.36.022.283.283,0,0,0,.08-.348c-1.557-3.417-1.177-6.081,1.2-8.386a.207.207,0,0,1,.139-.053.193.193,0,0,1,.13.059c3.4,3.586,3.607,6.98.628,10.377a.28.28,0,0,0,.028.4l.022.018a25.52,25.52,0,0,0,5.667,3,.286.286,0,0,0,.367-.163.281.281,0,0,0-.064-.3c-2.136-2.152-2.655-4.5-1.541-6.98a.188.188,0,0,1,.172-.111.2.2,0,0,1,.081.018c3.674,1.711,4.883,4.412,3.584,8.03a.281.281,0,0,0,.173.36l.026.008a25.6,25.6,0,0,0,2.95.573.188.188,0,0,1,.158.214.189.189,0,0,1-.181.159,25.768,25.768,0,0,1-2.8-.53.278.278,0,0,0-.067-.008.283.283,0,0,0-.232.119C-205.734,189.219-207.812,190.468-209.957,190.468Z" transform="translate(230.377 -133.801)" fill="#e8723e"/>
            <path id="Path_55761" data-name="Path 55761" d="M-176.205,190.469c-2.145,0-4.222-1.248-5.849-3.516a.286.286,0,0,0-.232-.119.272.272,0,0,0-.067.008,25.912,25.912,0,0,1-2.776.528h0a.194.194,0,0,1-.207-.161.188.188,0,0,1,.162-.21,25.631,25.631,0,0,0,2.95-.573.283.283,0,0,0,.206-.343l-.008-.024c-1.293-3.618-.085-6.319,3.59-8.03a.2.2,0,0,1,.081-.018.184.184,0,0,1,.064.011.194.194,0,0,1,.112.1c1.113,2.48.594,4.828-1.542,6.979a.279.279,0,0,0,0,.4.287.287,0,0,0,.3.063,25.508,25.508,0,0,0,5.668-3,.282.282,0,0,0,.11-.189.286.286,0,0,0-.067-.222c-2.978-3.4-2.773-6.792.628-10.377a.19.19,0,0,1,.133-.059.209.209,0,0,1,.135.053c2.375,2.306,2.754,4.97,1.2,8.386a.282.282,0,0,0,.156.37.288.288,0,0,0,.292-.046,25.215,25.215,0,0,0,4.541-5.549.281.281,0,0,0-.1-.387l-.006,0c-4.123-2.323-5.18-5.756-3.136-10.21a.189.189,0,0,1,.112-.1.182.182,0,0,1,.065-.011.186.186,0,0,1,.081.018c2.89,1.375,4.267,3.836,4.091,7.315a.281.281,0,0,0,.224.29.3.3,0,0,0,.063.008.286.286,0,0,0,.263-.173,25.39,25.39,0,0,0,1.036-2.919,25,25,0,0,0,.734-3.648.28.28,0,0,0-.062-.214.287.287,0,0,0-.2-.1c-4.671-.338-6.971-2.932-7.029-7.927a.184.184,0,0,1,.055-.134.266.266,0,0,1,.149-.055c3.318.031,5.461,1.7,6.728,5.249a.285.285,0,0,0,.269.188.369.369,0,0,0,.049,0,.284.284,0,0,0,.235-.28,25.114,25.114,0,0,0-1.043-6.957.285.285,0,0,0-.273-.2.273.273,0,0,0-.085.013,10.488,10.488,0,0,1-3.068.52c-3,0-5.25-1.766-6.677-5.248a.188.188,0,0,1,.109-.244h0a7.1,7.1,0,0,1,8.325,2.241.286.286,0,0,0,.4.018.28.28,0,0,0,.067-.324,25.269,25.269,0,0,0-4.475-6.752.287.287,0,0,0-.4-.02,7.959,7.959,0,0,1-5.187,2.285,8.316,8.316,0,0,1-5.613-2.649.183.183,0,0,1,0-.262l0,0a6.812,6.812,0,0,1,4.929-2.158,8.958,8.958,0,0,1,3.092.6.273.273,0,0,0,.1.018.283.283,0,0,0,.28-.286.281.281,0,0,0-.118-.224,25.245,25.245,0,0,0-2.464-1.716.283.283,0,0,0-.149-.042h-.024c-.272.022-.543.044-.8.044-5.247,0-7.281-4.508-7.916-6.446a.191.191,0,0,1,.027-.168.207.207,0,0,1,.162-.077c5.866,0,8.79,2.046,8.944,6.254a.283.283,0,0,0,.133.229,25.511,25.511,0,0,1,4.481,3.53.287.287,0,0,0,.4,0,.279.279,0,0,0,.069-.287,7.311,7.311,0,0,1,1.261-7.083.2.2,0,0,1,.128-.071h.009a.2.2,0,0,1,.131.041c3.157,2.542,3.529,6.2,1.111,10.862a.277.277,0,0,0,.018.287,25.862,25.862,0,0,1,2.128,3.752.284.284,0,0,0,.259.164.32.32,0,0,0,.056-.006.284.284,0,0,0,.224-.267,7.789,7.789,0,0,1,4.393-6.87.194.194,0,0,1,.093-.024.216.216,0,0,1,.167.1c1.993,3.619.55,7.695-3.674,10.386a.279.279,0,0,0-.12.313,25.586,25.586,0,0,1,.939,5.852.282.282,0,0,0,.224.265.469.469,0,0,0,.056,0,.287.287,0,0,0,.258-.163,8.116,8.116,0,0,1,5.975-4.759h.03a.19.19,0,0,1,.112.029.2.2,0,0,1,.081.121,7.22,7.22,0,0,1-1.21,5.485,8.888,8.888,0,0,1-5.546,3.479.282.282,0,0,0-.224.235,24.47,24.47,0,0,1-1.783,6.289.281.281,0,0,0,.15.37.287.287,0,0,0,.3-.052,7.536,7.536,0,0,1,5.249-2.111,10.332,10.332,0,0,1,2.925.462.188.188,0,0,1,.112.092.185.185,0,0,1,.012.144,7.056,7.056,0,0,1-7.211,4.883,12.476,12.476,0,0,1-3.039-.4.307.307,0,0,0-.071-.009.284.284,0,0,0-.242.133,25.621,25.621,0,0,1-3.64,4.585.279.279,0,0,0,0,.4.286.286,0,0,0,.2.082.272.272,0,0,0,.1-.018,8.984,8.984,0,0,1,3.086-.574,8.214,8.214,0,0,1,4.4,1.312.189.189,0,0,1,.057.262,7.344,7.344,0,0,1-4.711,3.124,8,8,0,0,1-1.568.154,9.359,9.359,0,0,1-5.1-1.6.287.287,0,0,0-.316,0,25.837,25.837,0,0,1-4.324,2.33.281.281,0,0,0-.151.37.282.282,0,0,0,.237.171,6.576,6.576,0,0,1,5.122,3.259.189.189,0,0,1-.058.261h0A5.8,5.8,0,0,1-176.205,190.469Z" transform="translate(235.788 -133.802)" fill="#e8723e"/>
          </g>
        </g>
        <g id="Group_40435" data-name="Group 40435" transform="translate(35.482 51.017)">
          <path id="Path_55729" data-name="Path 55729" d="M-198.968,185.424h0a.546.546,0,0,1-.547-.542v-4.567a.546.546,0,0,1,.547-.542h0a.545.545,0,0,1,.547.542v4.567A.546.546,0,0,1-198.968,185.424Z" transform="translate(199.515 -179.774)" fill="#e8723e"/>
          <path id="Path_55730" data-name="Path 55730" d="M-197.194,185.424h0a.546.546,0,0,1-.547-.542v-4.567a.546.546,0,0,1,.547-.542h0a.545.545,0,0,1,.547.542v4.567A.546.546,0,0,1-197.194,185.424Z" transform="translate(199.728 -179.774)" fill="#e8723e"/>
          <path id="Path_55731" data-name="Path 55731" d="M-195.426,185.424h0a.546.546,0,0,1-.547-.542v-4.567a.546.546,0,0,1,.547-.542h0a.546.546,0,0,1,.547.542v4.567A.546.546,0,0,1-195.426,185.424Z" transform="translate(199.941 -179.774)" fill="#e8723e"/>
          <path id="Path_55732" data-name="Path 55732" d="M-193.65,185.424h0a.546.546,0,0,1-.547-.542v-4.567a.546.546,0,0,1,.547-.542h0a.545.545,0,0,1,.547.542v4.567A.546.546,0,0,1-193.65,185.424Z" transform="translate(200.154 -179.774)" fill="#e8723e"/>
          <path id="Path_55733" data-name="Path 55733" d="M-191.878,185.424h0a.546.546,0,0,1-.547-.542v-4.567a.546.546,0,0,1,.547-.542h0a.545.545,0,0,1,.547.542v4.567A.546.546,0,0,1-191.878,185.424Z" transform="translate(200.367 -179.774)" fill="#e8723e"/>
        </g>
        <path id="Path_57747" data-name="Path 57747" d="M974.612,490.971l1.256,3.829h4.064l-3.288,2.367L977.9,501l-3.288-2.367L971.323,501l1.256-3.83-3.288-2.367h4.064Z" transform="translate(-934.612 -490.971)" fill="#e8723e"/>
        <g id="V1-2" data-name="V1" transform="translate(28.003 20.801)" style="isolation: isolate">
          <g id="Group_65865" data-name="Group 65865" transform="translate(0)" style="isolation: isolate">
            <path id="Path_57748" data-name="Path 57748" d="M-77.132,369.8H-79.9l-5.4-15.065h2.986l5.327,14.847Zm1.2-3.176-1.488-4.15,2.844-7.738H-71.6Z" transform="translate(85.303 -354.736)" fill="#e8723e"/>
            <path id="Path_57749" data-name="Path 57749" d="M-65.075,369.8h-2.909V357.413h-3.129l1.706-2.677h4.332Z" transform="translate(87.008 -354.736)" fill="#e8723e"/>
          </g>
        </g>
      </g>
    </g>
  </g>
</svg>
