<svg xmlns="http://www.w3.org/2000/svg" xmlns:xlink="http://www.w3.org/1999/xlink" width="42" height="42" viewBox="0 0 42 42">
  <defs>
    <linearGradient id="linear-gradient" x1="0.5" x2="0.5" y2="1" gradientUnits="objectBoundingBox">
      <stop offset="0" stop-color="#82ddff"/>
      <stop offset="1" stop-color="#46afff"/>
    </linearGradient>
    <clipPath id="clip-path">
      <rect id="Rectangle_73710" data-name="Rectangle 73710" width="28" height="28" transform="translate(-8616 -15835)" fill="#fff" stroke="#707070" strokeWidth="1"/>
    </clipPath>
    <clipPath id="clip-首頁_功能區_規則說明">
      <rect width="42" height="42"/>
    </clipPath>
  </defs>
  <g id="首頁_功能區_規則說明" clip-path="url(#clip-首頁_功能區_規則說明)">
    <g id="Group_68946" data-name="Group 68946" transform="translate(18472 2585)">
      <rect id="Rectangle_73705" data-name="Rectangle 73705" width="42" height="42" rx="8" transform="translate(-18472 -2585)" fill="url(#linear-gradient)"/>
      <g id="Mask_Group_1666" data-name="Mask Group 1666" transform="translate(-9849 13257)" clip-path="url(#clip-path)">
        <g id="noun-dialog-4143414" transform="translate(-8614.834 -15830.627)">
          <path id="Path_70969" data-name="Path 70969" d="M271.625,98.356V106.4a2.295,2.295,0,0,1-2.411,2.164h-.394a.165.165,0,0,0-.174.157v2.348a.349.349,0,0,1-.559.276l-3.511-2.679c-.1-.037-.2-.069-.3-.1h-8.145a2.277,2.277,0,0,1-2.379-2.163V98.356a2.28,2.28,0,0,1,2.379-2.164h13.085a2.3,2.3,0,0,1,2.411,2.164Z" transform="translate(-245.958 -96.189)" fill="#fff"/>
          <path id="Path_70970" data-name="Path 70970" d="M115.175,182.428h7.7v.948a2.276,2.276,0,0,1-2.379,2.159h-8.144c-.105.032-.2.064-.3.1l-3.511,2.679h0a.347.347,0,0,1-.559-.276v-2.348a.165.165,0,0,0-.174-.157h-.394A2.294,2.294,0,0,1,105,183.376v-8.047a2.294,2.294,0,0,1,2.411-2.159h4.464v6.173a3.2,3.2,0,0,0,3.3,3.084Z" transform="translate(-105.004 -169.135)" fill="#fff"/>
        </g>
      </g>
    </g>
  </g>
</svg>
