<svg xmlns="http://www.w3.org/2000/svg" xmlns:xlink="http://www.w3.org/1999/xlink" width="24" height="24" viewBox="0 0 24 24">
  <defs>
    <clipPath id="clip-path">
      <rect id="Rectangle_63766" data-name="Rectangle 63766" width="24" height="24"/>
    </clipPath>
    <linearGradient id="linear-gradient" x1="0.5" x2="0.5" y2="1" gradientUnits="objectBoundingBox">
      <stop offset="0" stop-color="#fedc96"/>
      <stop offset="1" stop-color="#fbce6f"/>
    </linearGradient>
  </defs>
  <g id="充提记录" clip-path="url(#clip-path)">
    <g id="我的_充值记录" clip-path="url(#clip-path)">
      <rect id="Rectangle_54891" data-name="Rectangle 54891" width="29" height="29" transform="translate(0 -12)" fill="none"/>
      <path id="Path_24907" data-name="Path 24907" d="M19.051,4H8.519A2.521,2.521,0,0,0,6,6.519V19.8a2.521,2.521,0,0,0,2.519,2.519H19.051A2.521,2.521,0,0,0,21.57,19.8V6.519A2.521,2.521,0,0,0,19.051,4ZM17.219,19.569H10.35a.687.687,0,0,1,0-1.374h6.869a.687.687,0,1,1,0,1.374Zm0-3.664H10.35a.687.687,0,0,1,0-1.374h6.869a.687.687,0,1,1,0,1.374Zm0-3.205H10.35a.687.687,0,0,1,0-1.374h6.869a.687.687,0,0,1,0,1.374Zm0-3.664H10.35a.687.687,0,0,1,0-1.374h6.869a.687.687,0,1,1,0,1.374Z" transform="translate(-4.668 -1.585)" fill="url(#linear-gradient)"/>
      <path id="Path_24916" data-name="Path 24916" d="M8.087,3.381,7.019,2.748,8.087.814A3.276,3.276,0,0,1,7.012.993,3.266,3.266,0,0,1,5.939.814a3.138,3.138,0,0,0-2.147,0l.794,1.935c-.009.007-.958.6-1.164.739h.017A7.21,7.21,0,0,0,1.4,5.675a5.4,5.4,0,0,0-.772,2.6c0,2,1.737,2.974,5.313,2.974s5.313-.969,5.313-2.974A6.3,6.3,0,0,0,8.087,3.381" transform="translate(12.278 10.949)" fill="#f1b335"/>
      <path id="Path_24917" data-name="Path 24917" d="M13.218,14.03l-.806.025-.016-.5.809-.027a.317.317,0,0,0,.05,0,.5.5,0,1,0-.087-.993l-.131,0,.183-.559a.5.5,0,0,0-.954-.311l-.3.9-.179.005-.355-.876-.011-.028a.5.5,0,0,0-.922.4l.219.547-.179.005a.5.5,0,0,0,.034,1l.809-.027.023.494-.806.025h-.054a.5.5,0,1,0,.088.993l.806-.026.024.75a.119.119,0,0,0,0,.023.5.5,0,1,0,.993-.057l-.024-.745.809-.027h-.011l.009,0a.494.494,0,0,0,.471-.518v-.016a.481.481,0,0,0-.5-.464" transform="translate(6.313 4.179)" fill="#fff"/>
    </g>
  </g>
</svg>
