<svg xmlns="http://www.w3.org/2000/svg" xmlns:xlink="http://www.w3.org/1999/xlink" width="24" height="24" viewBox="0 0 24 24">
  <defs>
    <linearGradient id="linear-gradient" x1="0.5" x2="0.5" y2="1" gradientUnits="objectBoundingBox">
      <stop offset="0" stop-color="#a5c9ff"/>
      <stop offset="1" stop-color="#4799eb"/>
    </linearGradient>
    <clipPath id="clip-path">
      <rect id="Rectangle_54894" data-name="Rectangle 54894" width="22" height="17.792" fill="url(#linear-gradient)"/>
    </clipPath>
    <clipPath id="clip-我的_个人信息">
      <rect width="24" height="24"/>
    </clipPath>
  </defs>
  <g id="我的_个人信息" clip-path="url(#clip-我的_个人信息)">
    <g id="Group_12163" data-name="Group 12163" transform="translate(1 3)">
      <g id="Group_12162" data-name="Group 12162" transform="translate(0 0)" clip-path="url(#clip-path)">
        <path id="Path_24918" data-name="Path 24918" d="M7.309,8.567a4.146,4.146,0,0,0,3.029-1.255,4.144,4.144,0,0,0,1.255-3.029,4.146,4.146,0,0,0-1.255-3.029,4.283,4.283,0,0,0-6.056,0h0A4.146,4.146,0,0,0,3.026,4.283,4.142,4.142,0,0,0,4.281,7.312,4.144,4.144,0,0,0,7.309,8.567" transform="translate(-1.232 0)" fill="url(#linear-gradient)"/>
        <path id="Path_24919" data-name="Path 24919" d="M12.346,20.015c-.023-.362-.063-.722-.12-1.078A9.5,9.5,0,0,0,12,17.854a5.8,5.8,0,0,0-.387-1.009,3.781,3.781,0,0,0-.584-.874,2.553,2.553,0,0,0-1.911-.828,1.023,1.023,0,0,0-.58.284c-.174.13-.378.284-.6.448a3.29,3.29,0,0,1-.783.4,2.669,2.669,0,0,1-1.914,0,3.26,3.26,0,0,1-.779-.4c-.225-.165-.429-.316-.606-.448a1.023,1.023,0,0,0-.58-.284,2.559,2.559,0,0,0-1.911.829,3.794,3.794,0,0,0-.583.873,5.763,5.763,0,0,0-.387,1.01A9.558,9.558,0,0,0,.152,18.94c-.057.357-.1.717-.12,1.079-.02.326-.03.664-.03,1.006a3.067,3.067,0,0,0,.732,2.14,2.443,2.443,0,0,0,1.884.79H9.76a2.444,2.444,0,0,0,1.885-.79,3.066,3.066,0,0,0,.732-2.14c0-.341-.011-.681-.03-1.006Z" transform="translate(0 -6.166)" fill="url(#linear-gradient)"/>
        <path id="Path_24920" data-name="Path 24920" d="M28.556,4.882h-7.75a1.361,1.361,0,1,1,0-2.723h7.75a1.361,1.361,0,0,1,0,2.723" transform="translate(-7.917 0.306)" fill="url(#linear-gradient)"/>
        <path id="Path_24921" data-name="Path 24921" d="M29.914,15.568H24.14a1.361,1.361,0,0,1,0-2.723h5.774a1.361,1.361,0,0,1,0,2.723" transform="translate(-9.275 -5.23)" fill="url(#linear-gradient)"/>
        <path id="Path_24922" data-name="Path 24922" d="M29.914,26.253H24.14a1.361,1.361,0,0,1,0-2.723h5.774a1.361,1.361,0,0,1,0,2.723" transform="translate(-9.275 -10.767)" fill="url(#linear-gradient)"/>
      </g>
    </g>
  </g>
</svg>
