<svg xmlns="http://www.w3.org/2000/svg" xmlns:xlink="http://www.w3.org/1999/xlink" width="140" height="140" viewBox="0 0 140 140">
  <defs>
    <filter id="Ellipse_1044" x="11" y="11" width="118" height="118" filterUnits="userSpaceOnUse">
      <feOffset input="SourceAlpha"/>
      <feGaussianBlur stdDeviation="3" result="blur"/>
      <feFlood flood-color="#fff"/>
      <feComposite operator="in" in2="blur"/>
      <feComposite in="SourceGraphic"/>
    </filter>
    <clipPath id="clip-SHEIN登录图">
      <rect width="140" height="140"/>
    </clipPath>
  </defs>
  <g id="SHEIN登录图" clip-path="url(#clip-SHEIN登录图)">
    <rect id="Rectangle_55349" data-name="Rectangle 55349" width="140" height="140" fill="#fff" opacity="0"/>
    <g id="Group_25840" data-name="Group 25840" transform="translate(-117 -114)">
      <g transform="matrix(1, 0, 0, 1, 117, 114)" filter="url(#Ellipse_1044)">
        <circle id="Ellipse_1044-2" data-name="Ellipse 1044" cx="50" cy="50" r="50" transform="translate(20 20)" fill="#fff"/>
      </g>
      <g id="SHEIN_LOGO" transform="translate(149.93 146.913)">
        <path id="Path_70958" data-name="Path 70958" d="M37.077.037h7.64a29.687,29.687,0,0,1,27,17.913,29.158,29.158,0,0,1,2.3,9.2c.074.816.111,1.595.111,2.411,0,5.118.074,10.236,0,15.391A28.9,28.9,0,0,1,67.154,63.6,29.193,29.193,0,0,1,50.428,73.58a29.737,29.737,0,0,1-6.008.593H29.7A29.693,29.693,0,0,1,1.919,54.962a29.065,29.065,0,0,1-1.891-10.2c-.037-5.118-.074-10.273,0-15.391A29.08,29.08,0,0,1,7.482,10.05,29.632,29.632,0,0,1,29.585,0C32.07.037,34.592.037,37.077.037ZM37,59a17.624,17.624,0,0,0,6.3-.853,15.9,15.9,0,0,0,5.563-3,9.685,9.685,0,0,0,3.6-6.6,10.556,10.556,0,0,0-1.15-6.008,11.359,11.359,0,0,0-4.191-4.191,29.584,29.584,0,0,0-6.342-2.893c-1.854-.63-3.746-1.224-5.563-1.929a19.134,19.134,0,0,1-4.933-2.633,5.249,5.249,0,0,1-1.78-5.86,6.257,6.257,0,0,1,2.707-3.227,9.712,9.712,0,0,1,5.044-1.446,15.485,15.485,0,0,1,2.633.111,18.324,18.324,0,0,1,2.485.445,18.66,18.66,0,0,1,3.189,1.335c.334.185.63.445.964.668.371.26.519.223.853-.037a3.97,3.97,0,0,1,.593-.519l3.227-2.893c.185-.148.185-.26-.037-.408s-.408-.26-.593-.408A21.613,21.613,0,0,0,43.641,16.1a26.312,26.312,0,0,0-2.893-.519,27.884,27.884,0,0,0-8.6.074,17.246,17.246,0,0,0-5.526,2.114A11.2,11.2,0,0,0,22.094,22.7a9.913,9.913,0,0,0-.668,6.119,6.517,6.517,0,0,0,.482,1.854,15.043,15.043,0,0,0,2.04,3.041A14.283,14.283,0,0,0,26.025,35.6a21.076,21.076,0,0,0,3.6,1.966c.89.371,1.78.779,2.67,1.113,1.224.482,2.522.853,3.783,1.3a43.5,43.5,0,0,1,4.154,1.595,13.218,13.218,0,0,1,3.709,2.3A5.341,5.341,0,0,1,45.5,47.619a4.233,4.233,0,0,1-.185,1.372,4.648,4.648,0,0,1-1.483,2.522,9.579,9.579,0,0,1-3.746,1.966,12.859,12.859,0,0,1-3.152.371,20.245,20.245,0,0,1-2.114-.148,25.631,25.631,0,0,1-4.08-.816,14.631,14.631,0,0,1-2.114-.816,29.043,29.043,0,0,1-2.782-1.521.852.852,0,0,0-1.113.111c-.223.185-.408.371-.63.556-.964.89-1.891,1.817-2.93,2.633-.408.334-.408.63.037.927.89.556,1.817,1.113,2.782,1.595a23.212,23.212,0,0,0,7.343,2.3A54.957,54.957,0,0,0,37,59Z"/>
      </g>
    </g>
  </g>
</svg>
