<svg xmlns="http://www.w3.org/2000/svg" xmlns:xlink="http://www.w3.org/1999/xlink" width="24" height="24" viewBox="0 0 24 24">
  <defs>
    <linearGradient id="linear-gradient" x1="0.5" x2="0.5" y2="1" gradientUnits="objectBoundingBox">
      <stop offset="0" stop-color="#7693db"/>
      <stop offset="1" stop-color="#4d66a2"/>
    </linearGradient>
    <clipPath id="clip-path">
      <rect id="Rectangle_55199" data-name="Rectangle 55199" width="22.009" height="22" fill="url(#linear-gradient)"/>
    </clipPath>
    <clipPath id="clip-我的_账户明细">
      <rect width="24" height="24"/>
    </clipPath>
  </defs>
  <g id="我的_账户明细" clip-path="url(#clip-我的_账户明细)">
    <g id="Group_12570" data-name="Group 12570" transform="translate(1 1)">
      <g id="Group_12570-2" data-name="Group 12570" transform="translate(0 0)" clip-path="url(#clip-path)">
        <path id="Path_24984" data-name="Path 24984" d="M21.913,0A2.576,2.576,0,1,0,24.47,2.574,2.565,2.565,0,0,0,21.913,0m1.24,2.483-.39.38a.219.219,0,0,0-.063.192l.092.536a.217.217,0,0,1-.315.229L22,3.567a.216.216,0,0,0-.2,0l-.482.253A.217.217,0,0,1,21,3.591l.092-.536a.216.216,0,0,0-.062-.192l-.39-.38a.217.217,0,0,1,.12-.37l.539-.078a.216.216,0,0,0,.163-.119l.241-.488a.217.217,0,0,1,.389,0l.241.488a.216.216,0,0,0,.163.119l.539.078a.217.217,0,0,1,.12.37" transform="translate(-10.241 0)" fill="url(#linear-gradient)"/>
        <path id="Path_24985" data-name="Path 24985" d="M2.6,18.9c.087-.434.136-.722.2-1A7.231,7.231,0,0,1,9.957,12.37c1.746-.006,3.491.113,5.237.156a.75.75,0,0,0,.452-.216,4.525,4.525,0,0,1,2.87-1.231c.672-.035.935.253.833.929-.119.791-.285,1.577-.387,2.37a1.229,1.229,0,0,0,.172.66c.38.736.778,1.464,1.188,2.184a1,1,0,0,0,.4.421,1.98,1.98,0,0,1,1.278,1.962c0,.376.008.752,0,1.128a1.932,1.932,0,0,1-1.708,1.907.829.829,0,0,0-.639.428c-.386.543-.842,1.037-1.237,1.574a1.5,1.5,0,0,0-.3.715c-.047.569-.012,1.144-.022,1.716s-.231.789-.814.794c-.7.006-1.407,0-2.11,0-.745,0-.919-.174-.939-.919,0-.127-.02-.254-.032-.393H10.4c-.017.131-.036.224-.041.318-.041.863-.173.993-1.016.994-.687,0-1.374.005-2.061,0-.55-.006-.844-.235-.774-.769a1.871,1.871,0,0,0-1.017-2,6.422,6.422,0,0,1-2.74-4.474.6.6,0,0,0-.594-.6A2.556,2.556,0,0,1,.573,15.9c.214-.26.455-.488.837-.359.47.159.562.635.221,1.118a1.17,1.17,0,0,0-.01,1.646,5.064,5.064,0,0,0,.981.6m9.042-2.684c.62,0,1.24.011,1.86,0,.446-.011.731-.27.709-.639a.632.632,0,0,0-.719-.632q-1.835-.008-3.67,0c-.411,0-.7.176-.73.62-.027.39.259.644.741.654.6.012,1.207,0,1.81,0m6.442,1.95a.616.616,0,0,0-.609-.633.6.6,0,0,0-.656.63.587.587,0,0,0,.627.613.594.594,0,0,0,.637-.609" transform="translate(0 -5.871)" fill="url(#linear-gradient)"/>
      </g>
    </g>
  </g>
</svg>
