<svg xmlns="http://www.w3.org/2000/svg" xmlns:xlink="http://www.w3.org/1999/xlink" width="42" height="42" viewBox="0 0 42 42">
  <defs>
    <linearGradient id="linear-gradient" x1="0.5" x2="0.5" y2="1" gradientUnits="objectBoundingBox">
      <stop offset="0" stop-color="#ffaf68"/>
      <stop offset="1" stop-color="#fe8a06"/>
    </linearGradient>
    <clipPath id="clip-path">
      <rect id="Rectangle_55166" data-name="Rectangle 55166" width="28" height="28" fill="#fff"/>
    </clipPath>
    <clipPath id="clip-首頁_功能區_邀請好友">
      <rect width="42" height="42"/>
    </clipPath>
  </defs>
  <g id="首頁_功能區_邀請好友" clip-path="url(#clip-首頁_功能區_邀請好友)">
    <g id="Group_68968" data-name="Group 68968" transform="translate(18472 2585)">
      <rect id="Rectangle_73705" data-name="Rectangle 73705" width="42" height="42" rx="8" transform="translate(-18472 -2585)" fill="url(#linear-gradient)"/>
      <g id="我的_邀请好友" transform="translate(-18465 -2578)" clip-path="url(#clip-path)">
        <g id="friends" transform="translate(1.167 4.084)">
          <g id="Group_11" data-name="Group 11" transform="translate(2.515)">
            <g id="Group_10" data-name="Group 10">
              <path id="Path_9" data-name="Path 9" d="M66.642,57.143a4.976,4.976,0,1,0,4.679,4.968A4.838,4.838,0,0,0,66.642,57.143Z" transform="translate(-61.37 -57.134)" fill="#fff"/>
            </g>
          </g>
          <g id="Group_13" data-name="Group 13" transform="translate(14.417 0.719)">
            <g id="Group_12" data-name="Group 12">
              <path id="Path_10" data-name="Path 10" d="M291.655,71.321h-.032a3.886,3.886,0,0,0-2.851,1.283,4.433,4.433,0,0,0,.049,5.982,3.887,3.887,0,0,0,2.84,1.241h.033a3.886,3.886,0,0,0,2.851-1.283,4.362,4.362,0,0,0,1.135-3A4.151,4.151,0,0,0,291.655,71.321Z" transform="translate(-287.636 -71.321)" fill="#fff"/>
            </g>
          </g>
          <g id="Group_15" data-name="Group 15" transform="translate(13.533 10.046)">
            <g id="Group_14" data-name="Group 14">
              <path id="Path_11" data-name="Path 11" d="M275.062,257.358h-.388a7,7,0,0,0-4.713,1.818,9.045,9.045,0,0,1,3.532,6.711h8.6v-1.5A7.04,7.04,0,0,0,275.062,257.358Z" transform="translate(-269.96 -257.358)" fill="#fff"/>
            </g>
          </g>
          <g id="Group_17" data-name="Group 17" transform="translate(0 11.498)">
            <g id="Group_16" data-name="Group 16">
              <path id="Path_12" data-name="Path 12" d="M15.558,293.395a7.551,7.551,0,0,0-7.537-7.076H7.554A7.553,7.553,0,0,0,0,293.873v.894H15.573v-.9Q15.573,293.631,15.558,293.395Z" transform="translate(0 -286.319)" fill="#fff"/>
            </g>
          </g>
        </g>
      </g>
    </g>
  </g>
</svg>
