<svg xmlns="http://www.w3.org/2000/svg" xmlns:xlink="http://www.w3.org/1999/xlink" width="32" height="32" viewBox="0 0 32 32">
  <defs>
    <clipPath id="clip-path">
      <rect id="Rectangle_55354" data-name="Rectangle 55354" width="32" height="32" transform="translate(-68 3315)" fill="#fff"/>
    </clipPath>
    <linearGradient id="linear-gradient" x1="0.5" x2="0.5" y2="1" gradientUnits="objectBoundingBox">
      <stop offset="0" stop-color="#829bff"/>
      <stop offset="1" stop-color="#466aff"/>
    </linearGradient>
    <clipPath id="clip-APP下载">
      <rect width="32" height="32"/>
    </clipPath>
  </defs>
  <g id="APP下载" clip-path="url(#clip-APP下载)">
    <g id="Mask_Group_300" data-name="Mask Group 300" transform="translate(68 -3315)" clip-path="url(#clip-path)">
      <g id="Group_25983" data-name="Group 25983" transform="translate(-202 2879)">
        <path id="Union_22" data-name="Union 22" d="M8.94-2856.061l-6.379-6.378A1.5,1.5,0,0,1,3.622-2865H7v-12.5a1.5,1.5,0,0,1,1.5-1.5h3a1.5,1.5,0,0,1,1.5,1.5v12.5h3.38a1.5,1.5,0,0,1,1.06,2.561l-6.378,6.378a1.5,1.5,0,0,1-1.061.439A1.494,1.494,0,0,1,8.94-2856.061Z" transform="translate(140 3316)" fill="url(#linear-gradient)"/>
        <path id="Union_23" data-name="Union 23" d="M1-2873a1,1,0,0,1-1-1v-4a1,1,0,0,1,1-1H2.5a1,1,0,0,1,1,1v2h13v-2a1,1,0,0,1,1-1H19a1,1,0,0,1,1,1v4a1,1,0,0,1-1,1Z" transform="translate(140 3340)" fill="url(#linear-gradient)"/>
      </g>
    </g>
    <rect id="Rectangle_55355" data-name="Rectangle 55355" width="32" height="32" fill="#fff" opacity="0"/>
  </g>
</svg>
