<svg xmlns="http://www.w3.org/2000/svg" xmlns:xlink="http://www.w3.org/1999/xlink" width="24" height="24" viewBox="0 0 24 24">
  <defs>
    <clipPath id="clip-path">
      <rect id="Rectangle_73536" data-name="Rectangle 73536" width="24" height="24" transform="translate(-9240 -15845)" fill="#fff" stroke="#707070" strokeWidth="1"/>
    </clipPath>
    <linearGradient id="linear-gradient" x1="0.5" x2="0.5" y2="1" gradientUnits="objectBoundingBox">
      <stop offset="0" stop-color="#ee3b33"/>
      <stop offset="1" stop-color="#f37670"/>
    </linearGradient>
    <clipPath id="clip-我的_优惠活动">
      <rect width="24" height="24"/>
    </clipPath>
  </defs>
  <g id="我的_优惠活动" clip-path="url(#clip-我的_优惠活动)">
    <g id="Mask_Group_1569" data-name="Mask Group 1569" transform="translate(9240 15845)" clip-path="url(#clip-path)">
      <g id="noun-gift-1420070" transform="translate(-9239 -15844)">
        <path id="Union_144" data-name="Union 144" d="M14.161,22a1.345,1.345,0,0,0,.084-.46V10.94h5.367v10.6a.46.46,0,0,1-.457.46ZM9.128,22a.46.46,0,0,1-.457-.46V5.689H7.757v4.338H.457A.458.458,0,0,1,0,9.566V5.232a.458.458,0,0,1,.457-.46H3.924A2.8,2.8,0,0,1,2.759,3.105a2.384,2.384,0,0,1,.318-1.917A2.6,2.6,0,0,1,5.268,0,2.68,2.68,0,0,1,6.942.593,7.052,7.052,0,0,1,8.671,2.866V2.322a1.1,1.1,0,0,1,1.1-1.1h2.353a1.1,1.1,0,0,1,1.1,1.1v.549A7.03,7.03,0,0,1,14.953.593,2.694,2.694,0,0,1,16.627,0a2.6,2.6,0,0,1,2.19,1.189,2.4,2.4,0,0,1,.321,1.917,2.8,2.8,0,0,1-1.168,1.666H21.54a.455.455,0,0,1,.458.46V9.566a.458.458,0,0,1-.458.46H14.245V5.689h-.918V21.541a.46.46,0,0,1-.458.46Zm6.4-20.694A8.318,8.318,0,0,0,13.4,4.771h2.684l1.22-.665a1.884,1.884,0,0,0,.942-1.217,1.461,1.461,0,0,0-.2-1.2A1.685,1.685,0,0,0,16.627.917,1.767,1.767,0,0,0,15.526,1.307ZM3.845,1.689a1.458,1.458,0,0,0-.2,1.2,1.885,1.885,0,0,0,.943,1.217l1.22.665H8.5A8.37,8.37,0,0,0,6.369,1.307a1.758,1.758,0,0,0-1.1-.39A1.688,1.688,0,0,0,3.845,1.689ZM2.85,22a.46.46,0,0,1-.457-.46V10.94H7.757v10.6A1.345,1.345,0,0,0,7.84,22Z" transform="translate(0 0)" fill="url(#linear-gradient)"/>
      </g>
    </g>
  </g>
</svg>
