<svg xmlns="http://www.w3.org/2000/svg" xmlns:xlink="http://www.w3.org/1999/xlink" width="42" height="42" viewBox="0 0 42 42">
  <defs>
    <linearGradient id="linear-gradient" x1="0.5" x2="0.5" y2="1" gradientUnits="objectBoundingBox">
      <stop offset="0" stop-color="#f8cf7c"/>
      <stop offset="1" stop-color="#cc9f40"/>
    </linearGradient>
    <clipPath id="clip-path">
      <rect id="Rectangle_55164" data-name="Rectangle 55164" width="28" height="28"/>
    </clipPath>
    <clipPath id="clip-path-2">
      <rect id="Rectangle_54890" data-name="Rectangle 54890" width="25.667" height="25.667" fill="none"/>
    </clipPath>
    <clipPath id="clip-首頁_功能區_馬上充值">
      <rect width="42" height="42"/>
    </clipPath>
  </defs>
  <g id="首頁_功能區_馬上充值" clip-path="url(#clip-首頁_功能區_馬上充值)">
    <g id="Group_68967" data-name="Group 68967" transform="translate(18472 2585)">
      <rect id="Rectangle_73705" data-name="Rectangle 73705" width="42" height="42" rx="8" transform="translate(-18472 -2585)" fill="url(#linear-gradient)"/>
      <g id="我的_充值记录" transform="translate(-18465 -2578)" clip-path="url(#clip-path)">
        <g id="Group_12159" data-name="Group 12159" transform="translate(1.167 1.167)" clip-path="url(#clip-path-2)">
          <g id="Group_12158" data-name="Group 12158" opacity="0">
            <g id="Group_12157" data-name="Group 12157">
              <g id="Group_12156" data-name="Group 12156" clip-path="url(#clip-path-2)">
                <rect id="Rectangle_54887" data-name="Rectangle 54887" width="25.667" height="25.667" fill="#999"/>
                <rect id="Rectangle_54888" data-name="Rectangle 54888" width="24.811" height="24.811" transform="translate(0.428 0.428)" fill="none" stroke="#707070" strokeWidth="1"/>
              </g>
            </g>
          </g>
          <path id="Path_24916" data-name="Path 24916" d="M17.9,7.006,15.425,5.54,17.9,1.063a7.583,7.583,0,0,1-2.488.415,7.56,7.56,0,0,1-2.482-.415,7.264,7.264,0,0,0-4.97,0L9.8,5.543c-.02.015-2.217,1.386-2.7,1.711h.04a16.69,16.69,0,0,0-4.73,5.062A12.5,12.5,0,0,0,.624,18.329c0,4.634,4.021,6.883,12.3,6.883s12.3-2.244,12.3-6.883c-.2-4.359-2.876-8.488-7.324-11.324" transform="translate(-0.09 -0.091)" fill="#fff"/>
          <path id="Path_24917" data-name="Path 24917" d="M17.336,17.532l-1.867.057-.037-1.15,1.872-.063a.731.731,0,0,0,.117,0,1.154,1.154,0,1,0-.2-2.3l-.3.006.425-1.295a1.167,1.167,0,0,0-2.208-.72l-.685,2.084-.415.012-.822-2.029-.026-.065A1.167,1.167,0,0,0,11.05,13l.506,1.267-.415.012a1.155,1.155,0,0,0,.078,2.305l1.874-.063.052,1.145-1.867.057h-.125a1.154,1.154,0,1,0,.2,2.3l1.867-.06L13.28,21.7a.276.276,0,0,0,0,.052,1.151,1.151,0,1,0,2.3-.132L15.523,19.9l1.874-.063h-.024l.021.007a1.144,1.144,0,0,0,1.09-1.2V18.6a1.113,1.113,0,0,0-1.151-1.073" transform="translate(-1.457 -1.638)" fill="url(#linear-gradient)"/>
        </g>
        <rect id="Rectangle_54891" data-name="Rectangle 54891" width="35" height="35" transform="translate(0 -14)" fill="none"/>
      </g>
    </g>
  </g>
</svg>
