<svg xmlns="http://www.w3.org/2000/svg" xmlns:xlink="http://www.w3.org/1999/xlink" width="24" height="24" viewBox="0 0 24 24">
  <defs>
    <clipPath id="clip-path">
      <rect id="Rectangle_63767" data-name="Rectangle 63767" width="24" height="24" transform="translate(291 372)" fill="#999"/>
    </clipPath>
    <linearGradient id="linear-gradient" x1="0.5" x2="0.5" y2="1" gradientUnits="objectBoundingBox">
      <stop offset="0" stop-color="#ffdbe2"/>
      <stop offset="1" stop-color="#ff7070"/>
    </linearGradient>
    <clipPath id="clip-VIP">
      <rect width="24" height="24"/>
    </clipPath>
  </defs>
  <g id="VIP" clip-path="url(#clip-VIP)">
    <g id="Mask_Group_1392" data-name="Mask Group 1392" transform="translate(-291 -372)" clip-path="url(#clip-path)">
      <g id="Group_42205" data-name="Group 42205" transform="translate(291.75 373.128)">
        <path id="Path_57670" data-name="Path 57670" d="M11.474,1.593a.865.865,0,0,1,1.527,0L15.976,7.2a.865.865,0,0,0,.607.445l6.2,1.139a.865.865,0,0,1,.473,1.444l-4.366,4.629a.865.865,0,0,0-.228.708L19.5,21.9a.865.865,0,0,1-1.236.891l-5.651-2.76a.865.865,0,0,0-.759,0l-5.651,2.76A.865.865,0,0,1,4.971,21.9l.847-6.335a.865.865,0,0,0-.228-.708L1.224,10.226A.865.865,0,0,1,1.7,8.783l6.2-1.139A.865.865,0,0,0,8.5,7.2Z" transform="translate(-0.988 -1.134)" fill="url(#linear-gradient)"/>
        <path id="Path_57671" data-name="Path 57671" d="M1.65-8.968a16.391,16.391,0,0,0,1.667-.083.442.442,0,0,1,.038.213.428.428,0,0,1-.038.225l-.065,0L3.163-8.6l-.1.012a.777.777,0,0,0-.112.021l-.1.027a.346.346,0,0,0-.1.038.9.9,0,0,0-.077.053.177.177,0,0,0-.056.071.223.223,0,0,0-.018.089,2.953,2.953,0,0,0,.284.887L4.641-3.424Q6.083-7.053,6.2-7.384q.012-.03.065-.183t.074-.219q.021-.065.056-.183a1.78,1.78,0,0,0,.05-.2.928.928,0,0,0,.015-.157q0-.213-.946-.284a.428.428,0,0,1-.038-.225.442.442,0,0,1,.038-.213q.975.083,1.407.083.3,0,.736-.038t.588-.044a.442.442,0,0,1,.038.213.428.428,0,0,1-.038.225l-.086.006L8.036-8.6q-.05,0-.136.015t-.148.027q-.062.015-.133.035a.534.534,0,0,0-.121.05.255.255,0,0,0-.08.071,5.725,5.725,0,0,0-.485.981Q6.378-6.066,5.586-4.193T4.487-1.58a.933.933,0,0,1-.266.322.565.565,0,0,1-.3.163.118.118,0,0,1-.074-.021.193.193,0,0,1-.05-.071.447.447,0,0,0-.041-.074L1.177-7.254Q.923-7.875.764-8.223a.508.508,0,0,0-.242-.233,1.22,1.22,0,0,0-.31-.118Q.078-8.6-.04-8.613a.428.428,0,0,1-.038-.225A.442.442,0,0,1-.04-9.051,16.634,16.634,0,0,0,1.65-8.968Z" transform="translate(6.938 17.537)" fill="#fff"/>
      </g>
    </g>
  </g>
</svg>
