<svg xmlns="http://www.w3.org/2000/svg" xmlns:xlink="http://www.w3.org/1999/xlink" width="24" height="24" viewBox="0 0 24 24">
  <defs>
    <clipPath id="clip-path">
      <rect id="Rectangle_54890" data-name="Rectangle 54890" width="22" height="22" fill="none"/>
    </clipPath>
    <linearGradient id="linear-gradient" x1="0.5" x2="0.5" y2="1" gradientUnits="objectBoundingBox">
      <stop offset="0" stop-color="#f8cf7c"/>
      <stop offset="1" stop-color="#cc9f40"/>
    </linearGradient>
    <clipPath id="clip-我的_充值记录">
      <rect width="24" height="24"/>
    </clipPath>
  </defs>
  <g id="我的_充值记录" clip-path="url(#clip-我的_充值记录)">
    <g id="Group_12159" data-name="Group 12159" transform="translate(1 1)" clip-path="url(#clip-path)">
      <g id="Group_12158" data-name="Group 12158" opacity="0">
        <g id="Group_12157" data-name="Group 12157">
          <g id="Group_12156" data-name="Group 12156" clip-path="url(#clip-path)">
            <rect id="Rectangle_54887" data-name="Rectangle 54887" width="22" height="22" fill="#999"/>
            <rect id="Rectangle_54888" data-name="Rectangle 54888" width="21.267" height="21.267" transform="translate(0.367 0.367)" fill="none" stroke="#707070" strokeWidth="1"/>
          </g>
        </g>
      </g>
      <path id="Path_24916" data-name="Path 24916" d="M15.43,6.094,13.311,4.838,15.43,1a6.5,6.5,0,0,1-2.133.356A6.48,6.48,0,0,1,11.17,1,6.226,6.226,0,0,0,6.91,1L8.485,4.84c-.017.013-1.9,1.188-2.31,1.467h.034a14.306,14.306,0,0,0-4.054,4.339A10.715,10.715,0,0,0,.624,15.8c0,3.972,3.447,5.9,10.542,5.9S21.708,19.777,21.708,15.8c-.175-3.736-2.465-7.275-6.278-9.706" transform="translate(-0.166 -0.167)" fill="url(#linear-gradient)"/>
      <path id="Path_24917" data-name="Path 24917" d="M16.3,16.651,14.7,16.7l-.032-.986,1.605-.054a.627.627,0,0,0,.1,0,.989.989,0,1,0-.172-1.97l-.26.005.364-1.11a1,1,0,0,0-1.893-.617l-.587,1.786-.356.01-.705-1.739-.022-.056a1,1,0,0,0-1.83.8l.434,1.086-.356.01a.99.99,0,0,0,.067,1.976l1.606-.054.045.981-1.6.049c-.034,0-.07,0-.107,0a.989.989,0,1,0,.175,1.97l1.6-.051.048,1.488a.237.237,0,0,0,0,.045.987.987,0,1,0,1.97-.113l-.048-1.479,1.606-.054-.021,0,.018.006a.981.981,0,0,0,.934-1.027V17.57a.954.954,0,0,0-.987-.92" transform="translate(-2.69 -3.028)" fill="#fff"/>
    </g>
    <rect id="Rectangle_54891" data-name="Rectangle 54891" width="30" height="30" transform="translate(0 -12)" fill="none"/>
  </g>
</svg>
